<svg version="1.1" preserveAspectRatio="none" xmlns="http://www.w3.org/2000/svg" width="500" height="500" viewBox="0 0 500 500"><rect width="100%" height="100%" fill="#FFE8ED" fill-opacity="1"/><svg viewBox="298.0567 206.7451 345.2721 150" width="333" height="144.66850927138333" x="83.5px" y="177.6657px" xmlns="http://www.w3.org/2000/svg" xmlns:xlink="http://www.w3.org/1999/xlink" preserveAspectRatio="none"><defs></defs><style>.aD-YM9nyY4color {fill:#EF0909;fill-opacity:1;}.aD6z1nYkhcolor {fill:#EF0909;fill-opacity:1;}.atBXipXk0bfillColor {fill:#EF0909;fill-opacity:1;}.icon3-str {stroke:#A20F0F;stroke-opacity:1;}.shapeStroke-str {stroke:#E12323;stroke-opacity:1;}</style><g opacity="1" transform="rotate(0 319.0567 206.7451)">
<svg width="324.2721" height="120" x="319.0567" y="206.7451" version="1.1" preserveAspectRatio="none" viewBox="1.1914 -30.1562 196.6211 72.76169999999999">
  <g transform="matrix(1 0 0 1 0 0)" class="aD6z1nYkhcolor"><path id="id-D6z1nYkh12" d="M6.04-24.24L7.29-29.61L23.05-29.61Q25-29.61 26.43-28.95Q27.85-28.28 28.77-27.22Q29.69-26.15 30.13-24.79Q30.57-23.44 30.57-22.03L30.57-22.03Q30.57-20.12 30.02-18.61Q29.47-17.11 28.32-15.94Q27.17-14.77 26.05-14.22Q24.94-13.67 24.47-13.46L24.47-13.46Q24.67-13.28 25-12.88Q25.33-12.48 25.61-11.63Q25.88-10.78 25.92-9.61L25.92-9.61L26.04-5.35L28.85-5.35L27.60 0L18.81 0L19.28-7.03Q19.36-8.28 19.19-9.19Q19.02-10.10 18.54-10.67Q18.07-11.25 17.27-11.52Q16.46-11.80 15.27-11.80L15.27-11.80L13.40-11.80L11.89-5.35L14.39-5.35L13.16 0L1.19 0L2.44-5.35L5.06-5.35L9.45-24.24L6.04-24.24ZM20.16-24.24L16.29-24.24L14.61-17.07L18.32-17.07Q19.53-17.07 20.52-17.31Q21.50-17.56 22.21-18.07Q22.91-18.57 23.29-19.36Q23.67-20.14 23.67-21.19L23.67-21.19Q23.67-22.58 22.86-23.41Q22.05-24.24 20.16-24.24L20.16-24.24Z M43.57 0.61L43.57 0.61Q40.92 0.61 38.68-0.30Q36.45-1.21 34.81-2.85Q33.18-4.49 32.28-6.79Q31.37-9.08 31.37-11.88L31.37-11.88Q31.37-14.65 32.07-17.08Q32.77-19.51 34.01-21.54Q35.25-23.57 36.94-25.18Q38.63-26.78 40.61-27.88Q42.58-28.98 44.76-29.57Q46.93-30.16 49.16-30.16L49.16-30.16Q51.93-30.16 54.19-29.24Q56.45-28.32 58.04-26.67Q59.63-25.02 60.50-22.71Q61.37-20.41 61.37-17.64L61.37-17.64Q61.37-14.92 60.71-12.52Q60.06-10.12 58.87-8.09Q57.68-6.05 56.04-4.44Q54.39-2.83 52.41-1.71Q50.43-0.59 48.19 0.01Q45.96 0.61 43.57 0.61ZM44.32-5.96L44.32-5.96Q45.63-5.96 46.88-6.38Q48.13-6.80 49.22-7.54Q50.31-8.28 51.23-9.32Q52.15-10.35 52.80-11.58Q53.46-12.81 53.83-14.20Q54.20-15.59 54.20-17.03L54.20-17.03Q54.20-18.50 53.80-19.70Q53.40-20.90 52.64-21.77Q51.88-22.64 50.78-23.12Q49.69-23.59 48.32-23.59L48.32-23.59Q46.33-23.59 44.53-22.68Q42.73-21.76 41.39-20.21Q40.04-18.67 39.24-16.68Q38.44-14.69 38.44-12.52L38.44-12.52Q38.44-11.05 38.85-9.85Q39.26-8.65 40.03-7.78Q40.80-6.91 41.88-6.44Q42.97-5.96 44.32-5.96Z M66.60-24.24L67.83-29.61L81.04-29.61L79.80-24.24L76.82-24.24L72.42-5.35L78.03-5.35Q78.73-5.35 79.23-5.81Q79.73-6.27 79.92-6.95L79.92-6.95L80.88-10.88L87.48-10.88L85 0L61.35 0L62.60-5.35L65.59-5.35L69.96-24.24L66.60-24.24Z M92.32-24.24L93.55-29.61L106.76-29.61L105.53-24.24L102.54-24.24L98.14-5.35L103.75-5.35Q104.45-5.35 104.95-5.81Q105.45-6.27 105.64-6.95L105.64-6.95L106.60-10.88L113.20-10.88L110.72 0L87.07 0L88.32-5.35L91.31-5.35L95.68-24.24L92.32-24.24Z M118.05-24.24L119.28-29.61L132.48-29.61L131.25-24.24L128.30-24.24L123.91-5.35L127.25-5.35L126.00 0L112.79 0L114.04-5.35L117.07-5.35L121.45-24.24L118.05-24.24Z M154.96-24.24L156.21-29.61L168.16-29.61L166.93-24.24L164.39-24.24L158.81 0L152.09 0L144.55-18.26L141.56-5.35L144.08-5.35L142.85 0L130.88 0L132.13-5.35L134.77-5.35L139.12-24.24L135.92-24.24L137.17-29.61L147.25-29.61L154.55-11.33L157.56-24.24L154.96-24.24Z M192.54 0L186.70 0L187.73-4.45Q186.95-3.20 185.71-2.02Q184.47-0.84 182.67-0.12Q180.86 0.61 178.96 0.61L178.96 0.61Q176.41 0.61 174.22-0.30Q172.03-1.21 170.42-2.85Q168.81-4.49 167.89-6.79Q166.97-9.08 166.97-11.88L166.97-11.88Q166.97-14.65 167.68-17.08Q168.38-19.51 169.62-21.54Q170.86-23.57 172.55-25.18Q174.24-26.78 176.21-27.88Q178.18-28.98 180.36-29.57Q182.54-30.16 184.77-30.16L184.77-30.16Q186.29-30.16 187.73-29.83Q189.18-29.51 190.44-28.94Q191.70-28.36 192.69-27.59Q193.67-26.82 194.34-25.96L194.34-25.96L197.81-25.96L196.56-20.61L188.96-20.61Q188.71-21.21 188.25-21.78Q187.79-22.34 187.15-22.77Q186.50-23.20 185.69-23.46Q184.88-23.71 183.93-23.71L183.93-23.71Q181.93-23.71 180.14-22.77Q178.34-21.84 176.99-20.27Q175.64-18.71 174.84-16.70Q174.04-14.69 174.04-12.52L174.04-12.52Q174.04-11.05 174.44-9.82Q174.84-8.59 175.60-7.69Q176.35-6.78 177.43-6.27Q178.52-5.76 179.88-5.76L179.88-5.76Q181.15-5.76 182.37-6.14Q183.59-6.52 184.62-7.20Q185.64-7.87 186.36-8.72Q187.07-9.57 187.44-10.45L187.44-10.45L181.21-10.45L182.44-15.80L196.21-15.80L192.54 0Z M1.19 36.61L2.36 31.61L9.47 31.61Q8.95 33.58 9.10 34.40Q9.26 35.22 9.76 35.77Q10.25 36.32 11.10 36.62Q11.95 36.92 13.16 36.92L13.16 36.92Q14.26 36.92 15.13 36.63Q16.00 36.34 16.61 35.82Q17.23 35.30 17.55 34.59Q17.87 33.88 17.87 33.04L17.87 33.04Q17.87 32.39 17.60 31.92Q17.32 31.45 16.87 31.11Q16.41 30.77 15.80 30.52Q15.20 30.26 14.51 30.05L14.51 30.05L11.15 28.88Q9.98 28.48 9.01 27.79Q8.05 27.10 7.35 26.16Q6.66 25.22 6.27 24.04Q5.88 22.86 5.88 21.51L5.88 21.51Q5.88 19.11 6.78 17.30Q7.68 15.50 9.29 14.29Q10.90 13.09 13.13 12.49Q15.37 11.88 18.05 11.88L18.05 11.88Q19.98 11.88 21.56 12.33Q23.14 12.78 24.29 13.53Q25.43 14.29 26.03 15.21Q26.62 16.14 26.76 17.08L26.76 17.08L29.00 17.08L27.83 22.08L20.76 22.08Q21.17 20.26 21.00 19.56Q20.82 18.86 20.31 18.35Q19.80 17.84 19.03 17.58Q18.26 17.31 17.32 17.31L17.32 17.31Q16.37 17.31 15.51 17.50Q14.65 17.68 14.00 18.08Q13.36 18.48 12.98 19.11Q12.60 19.73 12.60 20.59L12.60 20.59Q12.60 21.36 12.92 21.83Q13.24 22.31 13.96 22.67Q14.67 23.04 16.07 23.56L16.07 23.56L20.12 25.05Q22.62 25.95 23.77 27.76Q24.92 29.58 24.92 32.20L24.92 32.20Q24.92 34.62 23.97 36.52Q23.03 38.43 21.35 39.75Q19.67 41.08 17.33 41.79Q15.00 42.49 12.25 42.49L12.25 42.49Q10.20 42.49 8.51 41.98Q6.82 41.47 5.64 40.54Q4.47 39.62 3.98 38.56Q3.50 37.51 3.38 36.61L3.38 36.61L1.19 36.61Z M31.02 42L32.25 36.65L35.31 36.65L39.71 17.76L35.92 17.76L35.08 21.39L28.36 21.39L30.45 12.39L58.28 12.39L56.21 21.39L49.49 21.39L50.33 17.76L46.54 17.76L42.15 36.65L45.45 36.65L44.20 42L31.02 42Z M66.89 42.61L66.89 42.61Q64.24 42.61 62.00 41.70Q59.77 40.79 58.13 39.15Q56.50 37.51 55.60 35.21Q54.69 32.92 54.69 30.13L54.69 30.13Q54.69 27.35 55.39 24.92Q56.09 22.49 57.33 20.46Q58.57 18.43 60.26 16.82Q61.95 15.22 63.93 14.12Q65.90 13.02 68.08 12.43Q70.25 11.84 72.48 11.84L72.48 11.84Q75.25 11.84 77.51 12.76Q79.77 13.68 81.36 15.33Q82.95 16.98 83.82 19.29Q84.69 21.59 84.69 24.36L84.69 24.36Q84.69 27.08 84.03 29.48Q83.38 31.88 82.19 33.91Q81.00 35.95 79.36 37.56Q77.71 39.17 75.73 40.29Q73.75 41.41 71.51 42.01Q69.28 42.61 66.89 42.61ZM67.64 36.04L67.64 36.04Q68.95 36.04 70.20 35.62Q71.45 35.20 72.54 34.46Q73.63 33.72 74.55 32.68Q75.47 31.65 76.12 30.42Q76.78 29.19 77.15 27.80Q77.52 26.41 77.52 24.97L77.52 24.97Q77.52 23.50 77.12 22.30Q76.72 21.10 75.96 20.23Q75.20 19.36 74.10 18.88Q73.01 18.41 71.64 18.41L71.64 18.41Q69.65 18.41 67.85 19.32Q66.05 20.24 64.71 21.79Q63.36 23.33 62.56 25.32Q61.76 27.31 61.76 29.48L61.76 29.48Q61.76 30.95 62.17 32.15Q62.58 33.35 63.35 34.22Q64.12 35.09 65.21 35.56Q66.29 36.04 67.64 36.04Z M108.75 17.76L110.00 12.39L121.95 12.39L120.72 17.76L118.18 17.76L112.60 42L105.88 42L98.34 23.74L95.35 36.65L97.87 36.65L96.64 42L84.67 42L85.92 36.65L88.55 36.65L92.91 17.76L89.71 17.76L90.96 12.39L101.04 12.39L108.34 30.67L111.35 17.76L108.75 17.76Z M124.80 17.76L126.04 12.39L151.37 12.39L149.04 22.49L142.21 22.49L143.28 17.76L135.06 17.76L133.57 24.13L140.16 24.13L138.85 29.79L132.27 29.79L130.66 36.65L138.40 36.65L139.59 31.39L146.45 31.39L144.00 42L119.55 42L120.80 36.65L123.83 36.65L128.20 17.76L124.80 17.76Z"/></g>
</svg>
</g><g opacity="1" transform="rotate(0 298.0567 206.7451)">
<svg width="3" height="150" x="298.0567" y="206.7451" version="1.1" preserveAspectRatio="none" viewBox="0 0 3 150">
  <defs><rect x="0" y="0" width="3" height="150" rx="0px" ry="0px" id="id-tBXipXk0b1715256145496"></rect></defs><use class="atBXipXk0bfillColor shapeStroke-str" style="stroke-width:0;" xlink:href="#id-tBXipXk0b1715256145496"></use>
</svg>
</g><g opacity="1" transform="rotate(0 319.0567 342.7451)">
<svg width="122.7576" height="14" x="319.0567" y="342.7451" version="1.1" preserveAspectRatio="none" viewBox="3.72 -31.28 325.47999999999996 37.120000000000005">
  <g transform="matrix(1 0 0 1 0 0)" class="aD-YM9nyY4color"><path id="id-D-YM9nyY410" d="M25.80-30.04L25.80-16.16L30.88-16.16L30.88-30.72Q30.88-31.28 31.44-31.28L31.44-31.28L32.96-31.28Q33.52-31.28 33.52-30.72L33.52-30.72L33.52 5.04Q33.52 5.60 32.96 5.60L32.96 5.60L31.44 5.60Q30.88 5.60 30.88 5.04L30.88 5.04L30.88-13.76L25.80-13.76L25.80 3.52Q25.80 4.08 25.24 4.08L25.24 4.08L23.72 4.08Q23.16 4.08 23.16 3.52L23.16 3.52L23.16-30.04Q23.16-30.60 23.72-30.60L23.72-30.60L25.24-30.60Q25.80-30.60 25.80-30.04L25.80-30.04ZM21.04-7.96L21.24-6.76Q21.32-6.20 20.72-6.08L20.72-6.08Q17.92-5.40 14.28-5.10Q10.64-4.80 6.84-4.88L6.84-4.88Q5.04-4.92 4.38-5.72Q3.72-6.52 3.72-8.20L3.72-8.20L3.72-25.12Q3.72-26.80 4.36-27.36Q5-27.92 6.76-27.92L6.76-27.92L17.72-27.92Q18.24-27.92 18.24-27.44L18.24-27.44L18.24-26Q18.24-25.52 17.72-25.52L17.72-25.52L7.28-25.52Q6.72-25.52 6.60-25.38Q6.48-25.24 6.48-24.64L6.48-24.64L6.48-8.40Q6.48-7.80 6.68-7.60Q6.88-7.40 7.44-7.36L7.44-7.36Q10.92-7.24 14.04-7.48Q17.16-7.72 20.28-8.40L20.28-8.40Q20.92-8.52 21.04-7.96L21.04-7.96Z M60.48-14.88L60.48-14.88Q60.48-13.44 59.82-12.26Q59.16-11.08 58.02-10.20Q56.88-9.32 55.30-8.84Q53.72-8.36 51.88-8.36L51.88-8.36Q50-8.36 48.44-8.84Q46.88-9.32 45.72-10.20Q44.56-11.08 43.92-12.28Q43.28-13.48 43.28-14.88L43.28-14.88Q43.28-16.32 43.92-17.52Q44.56-18.72 45.72-19.56Q46.88-20.40 48.44-20.88Q50-21.36 51.88-21.36L51.88-21.36Q53.72-21.36 55.30-20.88Q56.88-20.40 58.02-19.54Q59.16-18.68 59.82-17.48Q60.48-16.28 60.48-14.88ZM57.80-14.88L57.80-14.88Q57.80-15.84 57.36-16.62Q56.92-17.40 56.12-17.94Q55.32-18.48 54.24-18.78Q53.16-19.08 51.88-19.08L51.88-19.08Q50.60-19.08 49.52-18.78Q48.44-18.48 47.64-17.94Q46.84-17.40 46.38-16.62Q45.92-15.84 45.92-14.88L45.92-14.88Q45.92-13.92 46.38-13.14Q46.84-12.36 47.64-11.80Q48.44-11.24 49.52-10.94Q50.60-10.64 51.88-10.64L51.88-10.64Q53.16-10.64 54.24-10.94Q55.32-11.24 56.12-11.80Q56.92-12.36 57.36-13.14Q57.80-13.92 57.80-14.88ZM45.88-5.28Q45.88-5.52 46.08-5.64Q46.28-5.76 46.48-5.76L46.48-5.76L66.16-5.76Q68.04-5.76 68.62-5.06Q69.20-4.36 69.20-2.72L69.20-2.72L69.20 5.20Q69.20 5.76 68.64 5.76L68.64 5.76L67 5.76Q66.44 5.76 66.44 5.20L66.44 5.20L66.44-2.52Q66.44-3.08 66.26-3.22Q66.08-3.36 65.52-3.36L65.52-3.36L46.48-3.36Q46.28-3.36 46.08-3.50Q45.88-3.64 45.88-3.84L45.88-3.84L45.88-5.28ZM69.20-8.28Q69.20-7.72 68.64-7.72L68.64-7.72L67-7.72Q66.44-7.72 66.44-8.28L66.44-8.28L66.44-30.72Q66.44-31.28 67-31.28L67-31.28L68.64-31.28Q69.20-31.28 69.20-30.72L69.20-30.72L69.20-19.84L74.72-19.84Q74.96-19.84 75.14-19.70Q75.32-19.56 75.32-19.32L75.32-19.32L75.32-18.04Q75.32-17.84 75.14-17.68Q74.96-17.52 74.72-17.52L74.72-17.52L69.20-17.52L69.20-8.28ZM63.56-23.68Q63.56-23.16 62.96-23.16L62.96-23.16L40.88-23.16Q40.68-23.16 40.50-23.32Q40.32-23.48 40.32-23.72L40.32-23.72L40.32-25Q40.32-25.24 40.50-25.40Q40.68-25.56 40.88-25.56L40.88-25.56L62.96-25.56Q63.56-25.56 63.56-25.04L63.56-25.04L63.56-23.68ZM57.72-28.60Q57.72-28.04 57.12-28.04L57.12-28.04L46.16-28.04Q45.96-28.04 45.78-28.18Q45.60-28.32 45.60-28.56L45.60-28.56L45.60-29.92Q45.60-30.16 45.76-30.32Q45.92-30.48 46.12-30.48L46.12-30.48L57.12-30.48Q57.72-30.48 57.72-29.92L57.72-29.92L57.72-28.60Z M85.76-1.56L85.76-1.56Q85.76-3.28 86.68-4.62Q87.60-5.96 89.26-6.90Q90.92-7.84 93.18-8.32Q95.44-8.80 98.16-8.80L98.16-8.80Q100.64-8.80 102.88-8.32Q105.12-7.84 106.84-6.92Q108.56-6 109.56-4.66Q110.56-3.32 110.56-1.56L110.56-1.56Q110.56 0.20 109.56 1.58Q108.56 2.96 106.84 3.88Q105.12 4.80 102.88 5.28Q100.64 5.76 98.16 5.76L98.16 5.76Q95.44 5.76 93.18 5.28Q90.92 4.80 89.26 3.88Q87.60 2.96 86.68 1.58Q85.76 0.20 85.76-1.56ZM88.72-1.44L88.72-1.44Q88.72-0.24 89.42 0.66Q90.12 1.56 91.38 2.16Q92.64 2.76 94.36 3.06Q96.08 3.36 98.12 3.36L98.12 3.36Q99.92 3.36 101.64 3.06Q103.36 2.76 104.68 2.16Q106 1.56 106.82 0.66Q107.64-0.24 107.64-1.44L107.64-1.44Q107.64-2.68 106.82-3.60Q106-4.52 104.68-5.14Q103.36-5.76 101.64-6.08Q99.92-6.40 98.12-6.40L98.12-6.40Q96.08-6.40 94.36-6.08Q92.64-5.76 91.38-5.14Q90.12-4.52 89.42-3.60Q88.72-2.68 88.72-1.44ZM102.60-11.08Q102.60-10.52 102.04-10.52L102.04-10.52L100.52-10.52Q99.96-10.52 99.96-11.08L99.96-11.08L99.96-30.04Q99.96-30.60 100.52-30.60L100.52-30.60L102.04-30.60Q102.60-30.60 102.60-30.04L102.60-30.04L102.60-21.20L107.68-21.20L107.68-30.72Q107.68-31.28 108.24-31.28L108.24-31.28L109.76-31.28Q110.32-31.28 110.32-30.72L110.32-30.72L110.32-9.84Q110.32-9.28 109.76-9.28L109.76-9.28L108.24-9.28Q107.68-9.28 107.68-9.84L107.68-9.84L107.68-18.80L102.60-18.80L102.60-11.08ZM90.12-29.40L90.12-29.40Q90.08-26.36 89.28-23.60L89.28-23.60Q89.76-22.20 90.56-20.84Q91.36-19.48 92.38-18.28Q93.40-17.08 94.60-16.10Q95.80-15.12 97.04-14.48L97.04-14.48Q97.48-14.24 97.16-13.76L97.16-13.76L96.20-12.40Q96.08-12.24 95.94-12.22Q95.80-12.20 95.44-12.40L95.44-12.40Q93.24-13.76 91.28-15.88Q89.32-18 88.04-20.28L88.04-20.28Q86.88-17.84 85.14-15.66Q83.40-13.48 80.96-11.48L80.96-11.48Q80.64-11.24 80.42-11.24Q80.20-11.24 80.12-11.36L80.12-11.36L79-12.64Q78.64-13.08 79.20-13.48L79.20-13.48Q81.24-15.08 82.72-16.84Q84.20-18.60 85.20-20.58Q86.20-22.56 86.72-24.76Q87.24-26.96 87.32-29.44L87.32-29.44Q87.28-29.72 87.44-29.90Q87.60-30.08 87.80-30.08L87.80-30.08L89.68-29.96Q90.12-29.96 90.12-29.40Z M158.40-1.52L158.40-1.52Q158.40 0.44 157.28 1.84Q156.16 3.24 154.38 4.12Q152.60 5 150.36 5.42Q148.12 5.84 145.92 5.84L145.92 5.84Q143.76 5.84 141.54 5.42Q139.32 5 137.52 4.12Q135.72 3.24 134.60 1.84Q133.48 0.44 133.48-1.52L133.48-1.52Q133.48-3.44 134.60-4.84Q135.72-6.24 137.52-7.14Q139.32-8.04 141.54-8.48Q143.76-8.92 145.92-8.92L145.92-8.92Q148.16-8.92 150.38-8.50Q152.60-8.08 154.38-7.18Q156.16-6.28 157.28-4.88Q158.40-3.48 158.40-1.52ZM155.48-1.48L155.48-1.48Q155.48-2.80 154.54-3.72Q153.60-4.64 152.16-5.24Q150.72-5.84 149.04-6.12Q147.36-6.40 145.92-6.40L145.92-6.40Q144.40-6.40 142.72-6.12Q141.04-5.84 139.64-5.24Q138.24-4.64 137.32-3.72Q136.40-2.80 136.40-1.48L136.40-1.48Q136.40-0.20 137.32 0.72Q138.24 1.64 139.64 2.22Q141.04 2.80 142.72 3.06Q144.40 3.32 145.92 3.32L145.92 3.32Q147.40 3.32 149.08 3.06Q150.76 2.80 152.18 2.22Q153.60 1.64 154.54 0.72Q155.48-0.20 155.48-1.48ZM145.44-21.72Q145.64-21.72 145.80-21.54Q145.96-21.36 145.96-21.12L145.96-21.12L145.96-14.40L163-14.40Q163.20-14.40 163.40-14.26Q163.60-14.12 163.60-13.88L163.60-13.88L163.60-12.52Q163.60-12.32 163.40-12.16Q163.20-12 163-12L163-12L129-12Q128.76-12 128.58-12.16Q128.40-12.32 128.40-12.52L128.40-12.52L128.40-13.88Q128.40-14.12 128.58-14.26Q128.76-14.40 129-14.40L129-14.40L143.28-14.40L143.28-21.12Q143.28-21.36 143.42-21.54Q143.56-21.72 143.80-21.72L143.80-21.72L145.44-21.72ZM133.80-29.96Q133.80-30.20 134-30.32Q134.20-30.44 134.40-30.44L134.40-30.44L155.08-30.44Q156.04-30.44 156.62-30.24Q157.20-30.04 157.52-29.66Q157.84-29.28 157.98-28.68Q158.12-28.08 158.12-27.24L158.12-27.24Q158.12-26.04 158.04-24.68Q157.96-23.32 157.80-22Q157.64-20.68 157.42-19.46Q157.20-18.24 157-17.32L157-17.32Q156.92-17.08 156.78-16.88Q156.64-16.68 156.40-16.72L156.40-16.72L154.80-16.84Q154.12-16.88 154.32-17.56L154.32-17.56Q154.56-18.44 154.76-19.70Q154.96-20.96 155.12-22.30Q155.28-23.64 155.34-24.94Q155.40-26.24 155.40-27.20L155.40-27.20Q155.40-27.76 155.22-27.90Q155.04-28.04 154.48-28.04L154.48-28.04L134.40-28.04Q134.20-28.04 134-28.18Q133.80-28.32 133.80-28.52L133.80-28.52L133.80-29.96Z M171.88-14.68L171.88-25.84Q171.88-27.52 172.52-28.10Q173.16-28.68 174.92-28.68L174.92-28.68L193.68-28.68Q194.64-28.68 195.22-28.56Q195.80-28.44 196.14-28.12Q196.48-27.80 196.60-27.24Q196.72-26.68 196.72-25.84L196.72-25.84L196.72-14.68Q196.72-13 196.08-12.42Q195.44-11.84 193.68-11.84L193.68-11.84L185.68-11.84L185.68-3.12L201.40-3.12Q201.60-3.12 201.80-2.98Q202.00-2.84 202.00-2.60L202.00-2.60L202.00-1.24Q202.00-1.04 201.80-0.88Q201.60-0.72 201.40-0.72L201.40-0.72L167.40-0.72Q167.16-0.72 166.98-0.88Q166.80-1.04 166.80-1.24L166.80-1.24L166.80-2.60Q166.80-2.84 166.98-2.98Q167.16-3.12 167.40-3.12L167.40-3.12L182.92-3.12L182.92-11.84L174.92-11.84Q173.96-11.84 173.38-11.96Q172.80-12.08 172.46-12.42Q172.12-12.76 172.00-13.30Q171.88-13.84 171.88-14.68L171.88-14.68ZM193.00-26.28L175.60-26.28Q175.04-26.28 174.84-26.06Q174.64-25.84 174.64-25.24L174.64-25.24L174.64-15.28Q174.64-14.68 174.84-14.46Q175.04-14.24 175.60-14.24L175.60-14.24L193.00-14.24Q193.56-14.24 193.76-14.46Q193.96-14.68 193.96-15.28L193.96-15.28L193.96-25.24Q193.96-25.84 193.76-26.06Q193.56-26.28 193.00-26.28L193.00-26.28Z M224.68-25.24L224.68-25.24Q224.12-23.56 223.08-21.84Q222.04-20.12 220.64-18.44L220.64-18.44Q222.24-16.56 224.34-14.90Q226.44-13.24 228.48-12.16L228.48-12.16Q229.00-11.92 228.72-11.40L228.72-11.40L227.80-10.04Q227.68-9.84 227.44-9.82Q227.20-9.80 227.00-9.92L227.00-9.92Q224.96-11.04 222.86-12.80Q220.76-14.56 218.96-16.52L218.96-16.52Q216.68-14.12 213.96-12.12Q211.24-10.12 208.48-8.84L208.48-8.84Q208.28-8.76 208.08-8.70Q207.88-8.64 207.76-8.84L207.76-8.84L206.96-10.24Q206.84-10.44 206.92-10.66Q207.00-10.88 207.20-10.96L207.20-10.96Q211.92-13.36 215.66-16.92Q219.40-20.48 221.64-25.08L221.64-25.08Q221.92-25.64 221.72-25.88Q221.52-26.12 220.96-26.12L220.96-26.12L209.24-26.12Q208.76-26.12 208.76-26.64L208.76-26.64L208.76-28.04Q208.76-28.52 209.24-28.52L209.24-28.52L222.04-28.52Q224.12-28.52 224.72-27.78Q225.32-27.04 224.68-25.24ZM225.88-20.60L233.44-20.60L233.44-30.72Q233.44-31.28 234.00-31.28L234.00-31.28L235.64-31.28Q236.20-31.28 236.20-30.72L236.20-30.72L236.20-4.88Q236.20-4.32 235.64-4.32L235.64-4.32L234.00-4.32Q233.44-4.32 233.44-4.88L233.44-4.88L233.44-18.28L225.88-18.28Q225.36-18.28 225.36-18.76L225.36-18.76L225.36-20.12Q225.36-20.60 225.88-20.60L225.88-20.60ZM237.44 4.40Q237.44 4.64 237.24 4.76Q237.04 4.88 236.84 4.88L236.84 4.88L216.60 4.88Q214.72 4.88 214.14 4.18Q213.56 3.48 213.56 1.84L213.56 1.84L213.56-5.76Q213.56-6.32 214.12-6.32L214.12-6.32L215.76-6.32Q216.32-6.32 216.32-5.76L216.32-5.76L216.32 1.64Q216.32 2.20 216.50 2.34Q216.68 2.48 217.24 2.48L217.24 2.48L236.84 2.48Q237.04 2.48 237.24 2.62Q237.44 2.76 237.44 2.96L237.44 2.96L237.44 4.40Z M260.68-14.68L260.68-25.84Q260.68-27.52 261.32-28.10Q261.96-28.68 263.72-28.68L263.72-28.68L282.48-28.68Q283.44-28.68 284.02-28.56Q284.60-28.44 284.94-28.12Q285.28-27.80 285.40-27.24Q285.52-26.68 285.52-25.84L285.52-25.84L285.52-14.68Q285.52-13 284.88-12.42Q284.24-11.84 282.48-11.84L282.48-11.84L274.48-11.84L274.48-3.12L290.20-3.12Q290.40-3.12 290.60-2.98Q290.80-2.84 290.80-2.60L290.80-2.60L290.80-1.24Q290.80-1.04 290.60-0.88Q290.40-0.72 290.20-0.72L290.20-0.72L256.20-0.72Q255.96-0.72 255.78-0.88Q255.60-1.04 255.60-1.24L255.60-1.24L255.60-2.60Q255.60-2.84 255.78-2.98Q255.96-3.12 256.20-3.12L256.20-3.12L271.72-3.12L271.72-11.84L263.72-11.84Q262.76-11.84 262.18-11.96Q261.60-12.08 261.26-12.42Q260.92-12.76 260.80-13.30Q260.68-13.84 260.68-14.68L260.68-14.68ZM281.80-26.28L264.40-26.28Q263.84-26.28 263.64-26.06Q263.44-25.84 263.44-25.24L263.44-25.24L263.44-15.28Q263.44-14.68 263.64-14.46Q263.84-14.24 264.40-14.24L264.40-14.24L281.80-14.24Q282.36-14.24 282.56-14.46Q282.76-14.68 282.76-15.28L282.76-15.28L282.76-25.24Q282.76-25.84 282.56-26.06Q282.36-26.28 281.80-26.28L281.80-26.28Z M299.52 2.44L299.52-4.20Q299.52-5.88 300.16-6.46Q300.80-7.04 302.56-7.04L302.56-7.04L320.56-7.04Q321.52-7.04 322.10-6.92Q322.68-6.80 323.02-6.48Q323.36-6.16 323.48-5.60Q323.60-5.04 323.60-4.20L323.60-4.20L323.60 2.44Q323.60 4.12 322.96 4.70Q322.32 5.28 320.56 5.28L320.56 5.28L302.56 5.28Q301.60 5.28 301.02 5.16Q300.44 5.04 300.10 4.70Q299.76 4.36 299.64 3.82Q299.52 3.28 299.52 2.44L299.52 2.44ZM319.88-4.64L303.24-4.64Q302.68-4.64 302.48-4.42Q302.28-4.20 302.28-3.60L302.28-3.60L302.28 1.84Q302.28 2.44 302.48 2.66Q302.68 2.88 303.24 2.88L303.24 2.88L319.88 2.88Q320.44 2.88 320.64 2.66Q320.84 2.44 320.84 1.84L320.84 1.84L320.84-3.60Q320.84-4.20 320.64-4.42Q320.44-4.64 319.88-4.64L319.88-4.64ZM328.60-13.40Q328.80-13.40 329.00-13.26Q329.20-13.12 329.20-12.88L329.20-12.88L329.20-11.52Q329.20-11.32 329.00-11.16Q328.80-11 328.60-11L328.60-11L294.60-11Q294.36-11 294.18-11.16Q294.00-11.32 294.00-11.52L294.00-11.52L294.00-12.88Q294.00-13.12 294.18-13.26Q294.36-13.40 294.60-13.40L294.60-13.40L328.60-13.40ZM311.52-16.68L311.52-16.68Q309.52-16.68 307.32-17.02Q305.12-17.36 303.30-18.16Q301.48-18.96 300.28-20.34Q299.08-21.72 299.08-23.76L299.08-23.76Q299.08-25.80 300.28-27.14Q301.48-28.48 303.30-29.30Q305.12-30.12 307.32-30.46Q309.52-30.80 311.52-30.80L311.52-30.80Q313.56-30.80 315.76-30.40Q317.96-30 319.78-29.16Q321.60-28.32 322.78-26.98Q323.96-25.64 323.96-23.76L323.96-23.76Q323.96-21.84 322.78-20.50Q321.60-19.16 319.76-18.32Q317.92-17.48 315.74-17.08Q313.56-16.68 311.52-16.68ZM311.52-28.32L311.52-28.32Q310.12-28.32 308.46-28.10Q306.80-27.88 305.36-27.34Q303.92-26.80 302.96-25.92Q302.00-25.04 302.00-23.72L302.00-23.72Q302.00-22.44 302.96-21.56Q303.92-20.68 305.36-20.14Q306.80-19.60 308.46-19.38Q310.12-19.16 311.52-19.16L311.52-19.16Q312.88-19.16 314.54-19.38Q316.20-19.60 317.64-20.14Q319.08-20.68 320.06-21.56Q321.04-22.44 321.04-23.72L321.04-23.72Q321.04-25.04 320.06-25.92Q319.08-26.80 317.64-27.34Q316.20-27.88 314.54-28.10Q312.88-28.32 311.52-28.32Z"/></g>
</svg>
</g></svg></svg>